<svg xmlns="http://www.w3.org/2000/svg" viewBox="0 0 280 280" role="img" aria-labelledby="title desc">
  <title id="title">Decorative Saguaro Blossoms email flower</title>
  <desc id="desc">Eight alternating magenta and bright pink petals around a sage green ring and gold center with Saguaro Blossoms text for contact emails.</desc>
  <rect x="0" y="0" width="280" height="280" fill="none"/>
  <g opacity="0.85">
    <rect x="100" y="20" width="80" height="120" rx="40" ry="58" fill="#D4006A" transform="rotate(0 140 140)"/>
    <rect x="100" y="20" width="80" height="120" rx="40" ry="58" fill="#E8008A" transform="rotate(45 140 140)"/>
    <rect x="100" y="20" width="80" height="120" rx="40" ry="58" fill="#D4006A" transform="rotate(90 140 140)"/>
    <rect x="100" y="20" width="80" height="120" rx="40" ry="58" fill="#E8008A" transform="rotate(135 140 140)"/>
    <rect x="100" y="20" width="80" height="120" rx="40" ry="58" fill="#D4006A" transform="rotate(180 140 140)"/>
    <rect x="100" y="20" width="80" height="120" rx="40" ry="58" fill="#E8008A" transform="rotate(225 140 140)"/>
    <rect x="100" y="20" width="80" height="120" rx="40" ry="58" fill="#D4006A" transform="rotate(270 140 140)"/>
    <rect x="100" y="20" width="80" height="120" rx="40" ry="58" fill="#E8008A" transform="rotate(315 140 140)"/>
  </g>
  <circle cx="140" cy="140" r="52" fill="#4A7C59"/>
  <circle cx="140" cy="140" r="40" fill="#D4A017"/>
  <text x="140" y="133" text-anchor="middle" fill="#FFFFFF" font-family="Georgia, 'Times New Roman', serif" font-size="10" font-style="italic">Saguaro</text>
  <text x="140" y="151" text-anchor="middle" fill="#FFFFFF" font-family="Georgia, 'Times New Roman', serif" font-size="10" font-style="italic">Blossoms</text>
</svg>
